<svg t="1682174103391" class="icon" viewBox="0 0 1024 1024" version="1.1" xmlns="http://www.w3.org/2000/svg" p-id="28602" width="200" height="200"><path d="M670.4 813.568c0-12.352-8.96-22.272-19.84-22.272h-277.12c-10.944 0-19.84 9.92-19.84 22.272v88.96H155.648v66.816h712.704v-66.752h-197.952v-89.024zM957.248 2.24H66.752C29.888 2.24 0 32.128 0 68.992v623.36c0 36.8 29.888 66.752 66.752 66.752h890.496c36.864 0 66.752-29.952 66.752-66.816V68.992c0-36.864-29.888-66.752-66.752-66.752z m0 667.776a22.272 22.272 0 0 1-22.272 22.272H88.96a22.272 22.272 0 0 1-22.272-22.272V91.264c0-12.288 9.984-22.272 22.272-22.272H935.04c12.288 0 22.272 9.92 22.272 22.272v578.752z m-228.096-42.624h120.448V276.8h-120.448v350.592z m-192.64 0h120.384V168.96H536.448v458.496z m-361.344 0H295.68V492.544H175.168v134.848z m168.64 0h120.384V384.64H343.808v242.752z" p-id="28603"></path></svg>
