<svg t="1682176601088" class="icon" viewBox="0 0 1024 1024" version="1.1" xmlns="http://www.w3.org/2000/svg" p-id="25290" width="200" height="200"><path d="M680.384 261.504a8.448 8.448 0 0 0-8.384-8.384H265.792a8.448 8.448 0 0 0-8.384 8.32v50.752c0 4.608 3.84 8.384 8.384 8.384h406.08c4.608 0 8.448-3.776 8.448-8.32l0.064-50.752z m-8.512 143.872H265.792a8.448 8.448 0 0 0-8.384 8.448v50.688c0 4.608 3.84 8.384 8.384 8.384h406.08c4.608 0 8.448-3.84 8.448-8.384v-50.688a8.32 8.32 0 0 0-8.448-8.448z m-211.392 152.32H265.792a8.448 8.448 0 0 0-8.384 8.384v50.688c0 4.608 3.84 8.448 8.384 8.448h194.56c4.672 0 8.448-3.84 8.448-8.448v-50.688a8.32 8.32 0 0 0-8.32-8.32z m-8.064 325.76H215.808V140.032h591.36v363.328c0 4.608 3.84 8.384 8.448 8.384h59.2c4.608 0 8.384-3.84 8.384-8.32V97.728A33.728 33.728 0 0 0 849.408 64H173.44a33.728 33.728 0 0 0-33.792 33.792v828.032c0 18.688 15.104 33.792 33.792 33.792h278.784c4.608 0 8.384-3.84 8.384-8.384v-59.2a8.192 8.192 0 0 0-8.32-8.512z m420.992-314.752l-19.328-19.328a12.608 12.608 0 0 0-8.96-3.648c-3.328 0-6.4 1.152-8.832 3.456l-29.696 29.696a99.84 99.84 0 0 0-49.664-13.184c-26.88 0-51.904 10.432-70.912 29.312l-46.4 46.4a12.608 12.608 0 0 0-3.712 8.96c0 3.456 1.28 6.656 3.712 9.024l123.712 123.712a12.608 12.608 0 0 0 8.96 3.712c3.2 0 6.528-1.28 8.832-3.52l46.592-46.592c32.064-32.128 38.4-81.728 16.192-120.512l29.44-29.44 0.128-0.128a12.8 12.8 0 0 0-0.064-17.92z m-65.6 97.216a50.688 50.688 0 0 1-15.04 36.096l-20.544 20.608-72.128-72.128 20.608-20.608a51.008 51.008 0 0 1 87.04 36.032z m-100.032 95.296a12.608 12.608 0 0 0-8.96-3.712 12.608 12.608 0 0 0-8.96 3.712l-24.064 23.808-28.16-28.224 23.872-23.872a12.8 12.8 0 0 0 0-18.112l-16.512-16.512a12.608 12.608 0 0 0-8.96-3.712 12.608 12.608 0 0 0-9.024 3.712l-24 23.872-13.12-13.056a12.608 12.608 0 0 0-8.96-3.712c-3.2 0-6.528 1.28-8.832 3.52l-46.464 46.592a100.352 100.352 0 0 0-16.256 120.512l-29.44 29.44a12.608 12.608 0 0 0-3.712 9.024c0 3.392 1.28 6.592 3.648 8.96l19.328 19.328a12.608 12.608 0 0 0 8.96 3.712c3.328 0 6.4-1.28 8.832-3.52l29.696-29.696a99.84 99.84 0 0 0 120.576-16.128l46.464-46.336a12.608 12.608 0 0 0 3.648-8.96 12.608 12.608 0 0 0-3.648-9.088l-13.12-13.056 23.872-23.936a12.8 12.8 0 0 0 0-18.048l-16.64-16.512z m-54.784 80.64l-20.608 20.544a51.008 51.008 0 1 1-72.192-72.192l20.608-20.608 72.192 72.192z" p-id="25291"></path></svg>
