<svg t="1682163954266" class="icon" viewBox="0 0 1024 1024" version="1.1" xmlns="http://www.w3.org/2000/svg" p-id="7395" width="200" height="200"><path d="M510.4 187.8c8.2 0 16-3.2 21.7-9 5.8-5.8 9-13.6 9-21.7V95.6c0-17-13.8-30.8-30.8-30.8s-30.7 13.8-30.7 30.8v61.5c0 17 13.8 30.7 30.8 30.7zM145.1 296.6c12.1 11.7 31.2 11.5 43.1-0.4 11.9-11.9 12-31 0.4-43.1l-43.5-43.5c-12.1-11.7-31.2-11.5-43.1 0.4-11.9 11.9-12 31-0.4 43.1l43.5 43.5z m781.6-56.3c-12-12-31.5-12-43.5 0l-43.5 43.5c-11.7 12.1-11.5 31.2 0.4 43.1 11.9 11.9 31 12 43.1 0.4l43.5-43.5c12-12 12-31.5 0-43.5z m-31.9 654.8h-46.1V556.9c0-186.8-151.5-338.3-338.3-338.3S172.1 370.1 172.1 556.9v338.3H126c-17 0-30.8 13.8-30.8 30.8s13.8 30.8 30.8 30.8h768.8c17 0 30.8-13.8 30.8-30.8s-13.8-30.9-30.8-30.9z m-353.6 0v32.4c0-17-13.8-30.8-30.8-30.8s-30.7 13.8-30.7 30.8v-32.4h-246V556.9c0-152.9 123.9-276.8 276.8-276.8S787.3 404 787.3 556.9v338.3H541.2z m0 0" p-id="7396"></path><path d="M610.9 364.5L385.5 607.8l93 25L407 851l236.1-239.7-93-25 60.8-221.8z m0 0M191 895h659.9v40.5H191z" p-id="7397"></path></svg>
