<svg t="1682176041446" class="icon" viewBox="0 0 1024 1024" version="1.1" xmlns="http://www.w3.org/2000/svg" p-id="14036" width="200" height="200"><path d="M630.437 177.093H428.063v708.313h202.373V177.093z m50.592 0v708.313h177.078c13.974 0 25.299-11.326 25.299-25.299V202.393c0-13.974-11.325-25.3-25.299-25.3H681.029z m-303.558 0H200.393c-13.973 0-25.296 11.326-25.296 25.299v657.715c0 13.974 11.326 25.299 25.296 25.299h177.079V177.093zM883.406 126.5c27.941 0 50.588 22.652 50.594 50.593v708.313c0 27.941-22.652 50.588-50.594 50.594h-708.31c-27.943 0-50.593-22.652-50.596-50.594V177.093c0-27.94 22.653-50.59 50.593-50.593h708.313zM276.282 303.578c-13.97 0.011-25.304-11.31-25.313-25.277-0.011-13.973 11.308-25.304 25.278-25.315h0.035c13.971 0.092 25.223 11.489 25.134 25.462-0.093 13.842-11.291 25.038-25.134 25.13z m0 75.893c-13.97 0.005-25.304-11.31-25.313-25.278-0.011-13.973 11.308-25.304 25.278-25.315h0.035c13.973 0.011 25.291 11.342 25.28 25.315-0.011 13.957-11.323 25.266-25.28 25.278z m0 75.886c-13.97 0.012-25.304-11.304-25.313-25.277-0.011-13.973 11.308-25.305 25.278-25.315h0.035c13.973 0.011 25.291 11.342 25.28 25.315-0.011 13.957-11.323 25.267-25.28 25.277z m-25.297 101.186h50.593c13.97 0 25.296 11.327 25.296 25.3s-11.326 25.299-25.296 25.299h-50.593c-13.97-0.097-25.221-11.494-25.128-25.468 0.09-13.836 11.289-25.032 25.128-25.131z m0 202.379h50.593c13.97 0.092 25.22 11.495 25.128 25.462-0.09 13.842-11.289 25.038-25.128 25.131h-50.593c-13.97-0.093-25.221-11.489-25.128-25.468 0.09-13.838 11.289-25.033 25.128-25.125z m0-101.187h50.593c13.97 0.092 25.22 11.495 25.128 25.462-0.09 13.838-11.289 25.039-25.128 25.131h-50.593c-13.97-0.092-25.221-11.495-25.128-25.468 0.09-13.836 11.289-25.033 25.128-25.125z m252.969-101.192h50.59c13.973 0.099 25.229 11.495 25.131 25.468-0.087 13.838-11.288 25.039-25.131 25.131h-50.59c-13.971-0.097-25.224-11.494-25.131-25.468 0.092-13.836 11.291-25.032 25.131-25.131z m0 202.379h50.59c13.973 0.092 25.229 11.495 25.131 25.462-0.087 13.842-11.288 25.038-25.131 25.131h-50.59c-13.971-0.093-25.224-11.489-25.131-25.468 0.092-13.838 11.291-25.033 25.131-25.125z m0-101.187h50.59c13.973 0.092 25.229 11.495 25.131 25.462-0.087 13.838-11.288 25.039-25.131 25.131h-50.59c-13.971-0.092-25.224-11.495-25.131-25.468 0.092-13.836 11.291-25.033 25.131-25.125z m252.968-101.192h50.593c13.967 0.099 25.218 11.495 25.131 25.468-0.093 13.838-11.293 25.039-25.131 25.131h-50.593c-13.973-0.097-25.224-11.494-25.126-25.468 0.087-13.836 11.282-25.032 25.126-25.131z m0 202.379h50.593c13.967 0.092 25.224 11.489 25.131 25.462-0.087 13.837-11.283 25.044-25.131 25.131h-50.593c-13.973-0.093-25.224-11.489-25.126-25.468 0.087-13.838 11.282-25.033 25.126-25.125z m0-101.187h50.593c13.967 0.092 25.218 11.495 25.131 25.462-0.093 13.838-11.293 25.039-25.131 25.131h-50.593c-13.973-0.092-25.224-11.495-25.126-25.468 0.087-13.836 11.282-25.033 25.126-25.125zM529.25 303.578c-13.971 0.093-25.37-11.157-25.462-25.131-0.089-13.973 11.163-25.37 25.133-25.462h0.329c13.968 0.092 25.218 11.489 25.131 25.468-0.093 13.837-11.294 25.033-25.131 25.125z m0 75.893c-13.971 0.005-25.305-11.31-25.316-25.278-0.008-13.973 11.31-25.304 25.281-25.315h0.035c13.968 0.011 25.288 11.343 25.283 25.315-0.011 13.957-11.326 25.266-25.283 25.278z m0 75.886c-13.971 0.012-25.305-11.304-25.316-25.277-0.008-13.973 11.31-25.305 25.281-25.315h0.035c13.968 0.011 25.288 11.342 25.283 25.315-0.011 13.957-11.326 25.267-25.283 25.277z m252.971-151.779c-13.973 0.093-25.37-11.157-25.467-25.131-0.088-13.973 11.162-25.37 25.135-25.462h0.332c13.968 0.092 25.218 11.489 25.125 25.468-0.093 13.837-11.288 25.033-25.125 25.125z m0 75.893c-13.979 0.005-25.305-11.31-25.316-25.278-0.01-13.973 11.305-25.305 25.277-25.315h0.039c13.968 0.011 25.283 11.343 25.272 25.315-0.006 13.957-11.315 25.266-25.272 25.278z m0 75.886c-13.979 0.012-25.305-11.304-25.316-25.277-0.01-13.973 11.305-25.305 25.277-25.315h0.039c13.968 0.011 25.283 11.342 25.272 25.315-0.006 13.957-11.315 25.267-25.272 25.277z" p-id="14037"></path></svg>
