<svg t="1682172429744" class="icon" viewBox="0 0 1024 1024" version="1.1" xmlns="http://www.w3.org/2000/svg" p-id="13039" width="200" height="200"><path d="M197.746222 0.076154h-63.99468A97.911861 97.911861 0 0 0 32 96.068174v63.994681A97.911861 97.911861 0 0 0 131.191755 256.054875h63.99468a97.911861 97.911861 0 0 0 101.751542-95.99202v-63.994681A97.911861 97.911861 0 0 0 197.746222 0.076154z m32.637287 159.986701a32.637287 32.637287 0 0 1-33.277233 31.99734h-63.994681A32.637287 32.637287 0 0 1 95.99468 160.062855v-63.994681a32.637287 32.637287 0 0 1 35.197075-31.99734h63.99468a32.637287 32.637287 0 0 1 33.277234 31.99734zM197.746222 384.044236h-63.99468A97.911861 97.911861 0 0 0 32 480.036257v63.99468A97.911861 97.911861 0 0 0 131.191755 640.022958h63.99468a97.911861 97.911861 0 0 0 101.751542-95.992021v-63.99468A97.911861 97.911861 0 0 0 197.746222 384.044236z m32.637287 159.986701a32.637287 32.637287 0 0 1-33.277233 31.997341h-63.994681A32.637287 32.637287 0 0 1 95.99468 544.030937v-63.99468a32.637287 32.637287 0 0 1 35.197075-31.99734h63.99468a32.637287 32.637287 0 0 1 33.277234 31.99734zM197.746222 768.012319h-63.99468A97.911861 97.911861 0 0 0 32 864.00434v63.99468A97.911861 97.911861 0 0 0 131.191755 1023.991041h63.99468a97.911861 97.911861 0 0 0 99.191755-95.992021v-63.99468A97.911861 97.911861 0 0 0 197.746222 768.012319z m33.277234 159.986701a32.637287 32.637287 0 0 1-33.277234 31.99734h-63.99468a32.637287 32.637287 0 0 1-37.756862-31.99734v-63.99468a32.637287 32.637287 0 0 1 33.277234-31.997341h63.994681a32.637287 32.637287 0 0 1 33.277234 31.997341zM439.646114 96.068174h518.996859A32.637287 32.637287 0 0 0 991.920207 64.070834a32.637287 32.637287 0 0 0-33.277234-31.99734H439.646114a32.637287 32.637287 0 0 0-33.277233 31.99734 32.637287 32.637287 0 0 0 33.277233 31.99734zM958.642973 330.928652H439.646114a31.99734 31.99734 0 1 0 0 63.99468h518.996859a31.99734 31.99734 0 1 0 0-63.99468zM958.642973 629.143862H439.646114a31.99734 31.99734 0 1 0 0 63.994681h518.996859a31.99734 31.99734 0 1 0 0-63.994681zM958.642973 927.99902H439.646114a31.99734 31.99734 0 1 0 0 63.994681h518.996859a31.99734 31.99734 0 1 0 0-63.994681z"></path></svg>
