<svg t="1682176458635" class="icon" viewBox="0 0 1024 1024" version="1.1" xmlns="http://www.w3.org/2000/svg" p-id="22236" width="200" height="200"><path d="M382.2 165.7H217.4c-47.5 0-86.2 38.7-86.2 86.2v164.8c0 47.5 38.7 86.2 86.2 86.2h164.8c47.5 0 86.2-38.7 86.2-86.2V251.9c0.1-47.6-38.6-86.2-86.2-86.2z m-9.9 241.1h-145v-145h145v145zM382.2 557.6H217.4c-47.5 0-86.2 38.7-86.2 86.2v164.8c0 47.5 38.7 86.2 86.2 86.2h164.8c47.5 0 86.2-38.7 86.2-86.2V643.8c0.1-47.5-38.6-86.2-86.2-86.2z m-9.9 241.1h-145v-145h145v145zM871.6 273.3L755.1 156.8c-16.3-16.3-37.9-25.3-61-25.3-23 0-44.7 9-61 25.3L516.6 273.3c-33.6 33.6-33.6 88.3 0 121.9l116.6 116.5c16.3 16.3 37.9 25.3 61 25.3 23 0 44.7-9 61-25.3l116.6-116.6c33.4-33.4 33.4-88.1-0.2-121.8zM694.1 436.8L591.6 334.3l102.5-102.5 102.5 102.5-102.5 102.5zM776.5 557.6H611.7c-47.5 0-86.2 38.7-86.2 86.2v164.8c0 47.5 38.7 86.2 86.2 86.2h164.8c47.5 0 86.2-38.7 86.2-86.2V643.8c0-47.5-38.7-86.2-86.2-86.2z m-9.9 241.1h-145v-145h145v145z" p-id="22237"></path></svg>
