<svg t="1682171870255" class="icon" viewBox="0 0 1025 1024" version="1.1" xmlns="http://www.w3.org/2000/svg" p-id="10958" width="200" height="200"><path d="M237.052174 1023.286119a953.658173 953.658173 0 0 1-179.832684-25.203823l-23.16027-6.13066v-23.16027A2656.619197 2656.619197 0 0 1 0 655.446538a68.118441 68.118441 0 0 1 49.726462-61.987782 95.365817 95.365817 0 0 1 99.452924 45.639356 38.146327 38.146327 0 0 0 32.696851 0 52.4512 52.4512 0 0 0 29.972114-57.900675 68.118441 68.118441 0 0 0-47.001724-68.118441 32.696852 32.696852 0 0 0-36.102774 6.811844 72.205547 72.205547 0 0 1-76.292653 29.972114 68.118441 68.118441 0 0 1-49.045278-57.21949 2301.722119 2301.722119 0 0 1 0-237.733359V219.488516h35.421589a1583.753752 1583.753752 0 0 0 204.355323 8.855397l-5.449475-4.087106a101.496477 101.496477 0 0 1-29.972114-125.337932A166.89018 166.89018 0 0 1 367.839581 1.509505a131.468591 131.468591 0 0 1 149.86057 110.351874A113.076612 113.076612 0 0 1 476.829087 225.619175a42.914618 42.914618 0 0 0-11.580135 15.667242H476.829087l258.850075-12.26132h40.18988l-4.768291 40.189881a1162.781787 1162.781787 0 0 0-9.536581 243.864018h4.087106s4.768291 0 7.493029-9.536582a117.163718 117.163718 0 0 1 128.743853-53.813568C932.541456 451.772399 1021.776614 478.338591 1021.776614 618.66258a155.310045 155.310045 0 0 1-96.728186 155.310045 119.888456 119.888456 0 0 1-136.236882-44.276987 53.813568 53.813568 0 0 0-26.566192-7.493028 1109.649403 1109.649403 0 0 0 18.391979 222.066117l5.449475 32.015667-31.334482 6.811845c-22.479086 4.768291-222.747302 47.001724-299.039956 27.247376a86.51042 86.51042 0 0 1-68.118441-68.118441 68.118441 68.118441 0 0 1 30.653298-68.118441 38.146327 38.146327 0 0 0 0-27.928561c-6.13066-16.348426-27.928561-21.797901-45.639355-23.841454s-55.857122 0-68.118441 21.116717a51.088831 51.088831 0 0 0 0 44.276986 80.37976 80.37976 0 0 1 21.116717 82.423314A68.118441 68.118441 0 0 1 272.473764 1023.286119a220.022564 220.022564 0 0 1-35.42159 0z m-142.367541-87.191605a613.065968 613.065968 0 0 0 164.846627 19.073164v-10.217766a11.580135 11.580135 0 0 0 0-8.855398A107.627137 107.627137 0 0 1 242.50165 818.930796a124.656747 124.656747 0 0 1 141.005172-68.118441 107.627137 107.627137 0 0 1 105.583584 79.698576 94.003448 94.003448 0 0 1-32.696852 97.40937 23.841454 23.841454 0 0 0 18.391979 14.986057 817.421291 817.421291 0 0 0 235.689806-21.116716 948.889882 948.889882 0 0 1-13.623688-204.355323 68.118441 68.118441 0 0 1 52.451199-61.306597 109.67069 109.67069 0 0 1 96.728186 32.696852 51.770015 51.770015 0 0 0 59.263044 20.435532A87.191604 87.191604 0 0 0 953.658173 618.66258c0-38.827511-8.855397-87.872789-50.407646-102.177662a68.118441 68.118441 0 0 0-64.712519 8.855397 76.973838 76.973838 0 0 1-78.336207 52.4512 68.118441 68.118441 0 0 1-68.118441-52.4512 978.861996 978.861996 0 0 1 4.087106-226.153223L476.829087 309.404858a76.973838 76.973838 0 0 1-73.567917-42.233434 78.336207 78.336207 0 0 1 23.16027-87.191604c26.566192-25.885008 27.247376-27.247376 23.841455-61.987781C446.175788 69.627946 381.463269 69.627946 368.520765 69.627946A99.452924 99.452924 0 0 0 272.473764 124.803883c-12.261319 35.421589 0 44.276987 5.449475 48.364093a78.336207 78.336207 0 0 1 42.914618 57.900675 68.118441 68.118441 0 0 1-30.653299 55.175937c-9.536582 7.493029-29.29093 23.841454-220.022564 7.493028A1861.676991 1861.676991 0 0 0 68.118441 483.106882L74.249101 478.338591a98.771739 98.771739 0 0 1 110.351874-31.334483 136.236882 136.236882 0 0 1 95.365817 129.425038 119.207272 119.207272 0 0 1-83.104498 128.062669 90.597526 90.597526 0 0 1-106.264768-32.015667 29.29093 29.29093 0 0 0-22.479085-12.942504c0 51.770015 16.348426 200.268216 26.566192 276.56087zM256.125338 226.981544z" p-id="10959"></path></svg>
