<svg t="1682173455851" class="icon" viewBox="0 0 1024 1024" version="1.1" xmlns="http://www.w3.org/2000/svg" p-id="17045" width="200" height="200"><path d="M511.7 705.7c26.7 0 51.9-5.1 75.7-15.2 23.7-10.1 44.3-24.1 61.9-41.9 17.5-17.9 31.2-38.4 41.4-61.9 10-23.5 15.1-48.6 15.1-75.4 0-26.8-5.1-51.9-15.1-75.3-10.1-23.5-23.9-44-41.4-61.5s-38.1-31.3-61.9-41.4c-23.7-10.1-49-15.2-75.7-15.2-26.7 0-51.8 5-75.2 15.2-23.5 10.1-44 23.9-61.4 41.5-17.5 17.5-31.3 38.1-41.4 61.5-10 23.4-15.1 48.5-15.1 75.3 0 26.8 5.1 51.9 15.1 75.4 10.1 23.4 23.9 44.1 41.4 61.9 17.5 17.9 37.9 31.8 61.4 41.9 23.3 10 48.4 15.1 75.2 15.1z m413.7-80.2c1.1 7.1 0.8 15.7-0.9 25.8-1.8 10.1-4.7 20.4-8.9 30.7s-9.2 19.7-15.1 28.1c-5.9 8.3-12.4 14.3-19.6 17.9-7.1 3.6-13.4 5.4-18.6 5.4-5.4 0-11.3-1.1-17.8-3.5-5.9-1.8-13.4-3.3-22.3-4.9-8.9-1.5-18-1.9-27.2-0.9-9.2 0.8-18.4 2.8-27.5 5.7-9.2 3-17.1 8.1-23.6 15.2-14.2 14.9-22.5 31.8-24.9 50.7-2.3 19 0.3 37.1 8 54.4 5.9 11.9 5.1 23.8-2.6 35.7-3.6 4.7-9.3 9.7-17 14.6-7.7 5.1-16.2 9.7-25.3 13.9-9.2 4.2-18.8 7.5-28.9 9.8-10.1 2.4-19 3.5-26.7 3.5-5.4 0-10.4-2-15.1-6.2-4.7-4.2-7.9-8.6-9.7-13.4h-0.8c-6.5-18.4-17.7-34.3-33.4-47.7-15.8-13.4-33.9-20.1-54.7-20.1-20.2 0-38.4 6.7-54.7 20.1-16.3 13.4-27.7 29-34.3 46.8-3 7.1-7.4 12.3-13.4 15.6-5.9 3.2-12.4 4.9-19.6 4.9-8.3 0-17.6-1.5-28-4.4-10.4-3.1-20.8-6.7-31.2-11.1-10.4-4.4-19.8-9.6-28.1-15.6-8.3-5.9-14.5-11.9-18.6-17.9-3-4.2-4.6-9-4.9-14.6-0.3-5.6 1.9-13.5 6.7-23.6 6.5-13.7 9.1-29.3 7.6-46.8-1.5-17.5-9.1-33.7-22.7-48.6-8.3-8.9-18.4-14.6-30.2-17.4-11.9-2.7-23.2-3.7-33.8-3.1-12.4 0.6-25.2 3-38.2 7.1-8.3 2.3-16.6 1.7-24.9-1.9-6.5-2.4-12.6-7.9-18.3-16.5-5.7-8.6-10.7-18.1-15.1-28.5-4.5-10.4-7.9-21.1-10.3-32.1-2.4-11-3-20-1.8-27.1 1.9-13.1 7.8-21.4 17.9-25 17.8-7.1 33.8-18.8 48-35.2 14.3-16.3 21.4-34.6 21.4-54.8 0-20.8-7.1-38.9-21.4-54.4-14.3-15.4-30.2-26.7-48-33.8-5.4-1.8-9.8-6.1-13.4-13-3.5-6.9-5.4-13.9-5.4-20.9 0-7.7 1.2-16.3 3.6-25.8 2.4-9.5 5.5-18.7 9.4-27.7 3.8-8.9 8.3-17 13.4-24.5 5-7.4 10.5-12.9 16.5-16.5 4.7-3 9.4-4.2 13.8-3.5 4.4 0.6 9.4 1.8 14.7 3.5 17.8 7.1 36.3 9.4 55.6 6.7 19.3-2.7 36.3-11.1 51.2-25.4 7.1-7.1 12.3-15.8 15.6-26.3 3.2-10.4 5.4-20.7 6.2-30.7 0.8-10.1 0.8-19.3 0-27.6-0.9-8.3-1.6-14.3-2.2-17.9-1.2-3.6-2.2-7.7-3.2-12.5-0.8-4.7-0.4-8.9 1.4-12.4 3.5-8.3 9.9-15.6 19.1-21.9 9.2-6.2 19.1-11.4 29.9-15.6 10.8-4.2 21-7.3 31.2-9.4 10-2 18.1-3.1 24-3.1 7.7 0 13.8 2.5 18.3 7.6s7.6 10.3 9.4 15.6c6.5 16 17.2 30.2 32.1 42.3 14.8 12.1 32.4 18.2 52.5 18.2 20.8 0 39.1-5.8 55.2-17.4 16-11.6 27.3-26.3 33.8-44.2 2.4-4.7 6.1-9.6 11.2-14.7 5-5 10.2-7.6 15.5-7.6 8.3 0 17.4 1.2 27.2 3.5 9.7 2.4 19.4 5.6 28.9 9.8 9.5 4.2 18.3 9.4 26.2 16s14.4 13.7 19.1 21.4c3 4.7 3.9 9.9 2.7 15.6-1.1 5.6-2.4 9.7-3.6 12-7.7 17.2-10 35.4-7 54.4 3 19.1 11.6 35.7 25.8 49.9 14.3 14.3 31.7 22.1 52.5 23.6s40.1-1.9 57.9-10.3c4.7-3 10.5-4.2 17.3-3.5 6.9 0.6 12.6 3.2 17.3 8 8.9 8.3 16.7 20.9 23.6 37.9 6.9 16.9 11.4 34 13.8 51.2 1.1 10.1-0.5 18-4.9 23.6-4.5 5.6-9.1 9.4-13.8 11.1-18.4 6.6-34.1 18-47.2 34.3-13.4 16.9-19.9 35.4-19.9 56.2 0 20.3 5.5 37.9 16.4 53.1 10.9 15.2 25.4 26 43.2 32.5 4.2 2.4 7.7 4.8 10.7 7.1 6.2 5.3 10.6 12.2 12.9 20.5z" p-id="17046"></path></svg>
