<svg t="1682177041298" class="icon" viewBox="0 0 1085 1024" version="1.1" xmlns="http://www.w3.org/2000/svg" p-id="28028" width="200" height="200"><path d="M76.460953 1024a77.941848 77.941848 0 0 1-76.538895-63.444664 352.14127 352.14127 0 0 1 350.738316-320.652763h383.941544a352.14127 352.14127 0 0 1 350.738316 320.652763 77.941848 77.941848 0 0 1-76.616836 63.444664z m207.403258-738.265185A285.812757 285.812757 0 0 1 569.754909 0a285.812757 285.812757 0 0 1 285.812757 285.734815A285.812757 285.812757 0 0 1 569.754909 571.625514a285.890699 285.890699 0 0 1-285.812756-285.812757z" p-id="28029"></path></svg>
